<?xml version="1.0" encoding="utf-8"?>
<!-- Generator: Adobe Illustrator 26.3.0, SVG Export Plug-In . SVG Version: 6.00 Build 0)  -->
<svg version="1.1" id="Layer_1" xmlns="http://www.w3.org/2000/svg" xmlns:xlink="http://www.w3.org/1999/xlink" x="0px" y="0px"
	 viewBox="0 0 143 32" style="enable-background:new 0 0 143 32;" xml:space="preserve">
<style type="text/css">
	.st0{fill:#6DCFF6;}
	.st1{fill:#063C57;}
	.st2{fill:#FFFFFF;}
</style>
<g>
	<polygon class="st0" points="22.91,21.79 27.69,21.79 20.49,29.8 13.37,21.79 18.14,21.79 20.53,25.1 	"/>
	<circle class="st1" cx="26.6" cy="15.4" r="1.69"/>
	<circle class="st1" cx="14.41" cy="15.4" r="1.69"/>
	<path class="st0" d="M6.31,2.2c0,2.28,0.49,3.67,2.38,3.48L14.2,5.1c4.19-0.45,5.76,2.04,6.32,5.82c0.6-4,2.08-6.27,6.32-5.82
		l5.52,0.58c1.89,0.19,2.38-1.22,2.38-3.48h4.12c0,6.89-1.85,9.47-6.9,8.94l-5.35-0.56c-2.84-0.3-3.69,1.95-3.69,5.13h-4.79
		c0-3.14-0.84-5.43-3.69-5.13l-5.31,0.56C4,11.7,2.19,9.08,2.19,2.2H6.31z"/>
	<path class="st1" d="M37.9,15.08c0-0.91-0.07-1.81-0.2-2.68c-0.07,0.07-0.13,0.13-0.2,0.19c-1.09,0.98-2.54,1.45-4.42,1.44
		c0.03,0.35,0.04,0.7,0.04,1.05c0,4-1.82,7.57-4.67,9.94l3.78,3.04C35.71,24.82,37.9,20.21,37.9,15.08z"/>
	<path class="st1" d="M7.29,15.08c0-0.36,0.01-0.71,0.04-1.06c-1.57-0.09-2.81-0.55-3.76-1.41c-0.27-0.25-0.52-0.52-0.75-0.83
		c-0.2,1.07-0.31,2.17-0.31,3.3c0,5.28,2.31,10.01,5.97,13.25l3.8-3.06C9.24,22.91,7.29,19.22,7.29,15.08z"/>
</g>
<g>
	<path class="st0" d="M50.67,12.43c-0.27-0.19-0.58-0.29-0.94-0.29c-0.7,0-1.29,0.36-1.77,1.09s-0.71,1.75-0.71,3.09v4.19h-0.78
		v-8.91h0.78v1.97h0.03c0.2-0.68,0.52-1.21,0.97-1.58c0.44-0.38,0.95-0.57,1.53-0.57c0.33,0,0.63,0.05,0.89,0.16V12.43z"/>
	<path class="st0" d="M57.41,20.5v-1.78h-0.03c-0.28,0.61-0.7,1.09-1.24,1.46s-1.14,0.54-1.81,0.54c-0.85,0-1.52-0.24-2.01-0.71
		c-0.49-0.48-0.74-1.08-0.74-1.8c0-1.55,1.03-2.49,3.09-2.82l2.74-0.41c0-1.91-0.72-2.87-2.16-2.87c-0.98,0-1.93,0.39-2.86,1.18
		v-0.97c0.33-0.26,0.78-0.48,1.34-0.67c0.57-0.19,1.1-0.28,1.6-0.28c0.92,0,1.63,0.28,2.13,0.85c0.5,0.57,0.75,1.4,0.75,2.48v5.79
		H57.41z M54.96,16.07c-0.93,0.13-1.59,0.35-1.97,0.65s-0.57,0.78-0.57,1.46c0,0.53,0.18,0.96,0.53,1.31
		c0.35,0.34,0.84,0.51,1.47,0.51c0.86,0,1.57-0.32,2.14-0.95c0.57-0.64,0.85-1.45,0.85-2.46v-0.87L54.96,16.07z"/>
	<path class="st0" d="M61.53,20.25c0,2.96-1.05,4.44-3.15,4.44c-0.42,0-0.84-0.1-1.27-0.3v-0.84c0.46,0.27,0.92,0.41,1.36,0.41
		c1.51,0,2.26-1.19,2.26-3.56v-8.8h0.8V20.25z M61.12,9.35c-0.17,0-0.33-0.06-0.46-0.19c-0.13-0.13-0.2-0.29-0.2-0.49
		c0-0.19,0.07-0.35,0.2-0.47c0.14-0.12,0.29-0.18,0.46-0.18c0.18,0,0.34,0.06,0.47,0.17c0.14,0.12,0.2,0.27,0.2,0.47
		c0,0.19-0.07,0.35-0.2,0.48C61.47,9.28,61.31,9.35,61.12,9.35z"/>
	<path class="st0" d="M67.78,20.72c-1.3,0-2.33-0.43-3.08-1.28s-1.14-1.97-1.14-3.34c0-1.48,0.4-2.64,1.19-3.47
		c0.79-0.84,1.83-1.25,3.13-1.25c1.27,0,2.27,0.42,3.01,1.24c0.74,0.83,1.1,1.98,1.1,3.45c0,1.39-0.38,2.51-1.13,3.37
		C70.11,20.29,69.08,20.72,67.78,20.72z M67.84,12.11c-1.05,0-1.89,0.35-2.51,1.06s-0.94,1.69-0.94,2.95c0,1.17,0.3,2.1,0.91,2.81
		c0.61,0.71,1.44,1.06,2.5,1.06c1.07,0,1.9-0.35,2.48-1.04c0.58-0.7,0.87-1.66,0.87-2.9c0-1.27-0.29-2.24-0.87-2.92
		C69.71,12.45,68.9,12.11,67.84,12.11z"/>
	<path class="st0" d="M76.09,22.32c-0.32,0.8-0.68,1.39-1.08,1.78s-0.9,0.58-1.52,0.58c-0.26,0-0.49-0.04-0.7-0.12v-0.8
		c0.21,0.08,0.45,0.12,0.73,0.12c0.71,0,1.28-0.49,1.69-1.48l0.83-1.97l-3.38-8.84h0.9l2.69,7.26c0.06,0.16,0.1,0.28,0.12,0.36
		c0.02,0.11,0.05,0.21,0.08,0.29h0.03l0.21-0.6l2.87-7.31h0.87L76.09,22.32z"/>
	<path class="st0" d="M82.34,9.35c-0.17,0-0.33-0.06-0.46-0.19c-0.13-0.13-0.2-0.29-0.2-0.49c0-0.19,0.07-0.35,0.2-0.47
		c0.14-0.12,0.29-0.18,0.46-0.18c0.18,0,0.34,0.06,0.47,0.17c0.14,0.12,0.2,0.27,0.2,0.47c0,0.19-0.07,0.35-0.2,0.48
		C82.68,9.28,82.52,9.35,82.34,9.35z M81.94,20.5v-8.91h0.8v8.91H81.94z"/>
	<path class="st0" d="M84.73,20.11v-0.97c0.3,0.26,0.67,0.47,1.1,0.62c0.43,0.15,0.8,0.23,1.11,0.23c1.4,0,2.1-0.57,2.1-1.71
		c0-0.39-0.15-0.73-0.46-1.01c-0.31-0.28-0.81-0.56-1.5-0.86c-0.85-0.37-1.45-0.76-1.8-1.15c-0.35-0.4-0.52-0.88-0.52-1.45
		c0-0.73,0.28-1.31,0.83-1.76c0.55-0.45,1.24-0.67,2.05-0.67c0.77,0,1.42,0.16,1.97,0.47v0.9c-0.66-0.43-1.35-0.64-2.05-0.64
		c-0.58,0-1.06,0.15-1.42,0.46c-0.36,0.3-0.54,0.7-0.54,1.19c0,0.42,0.11,0.77,0.34,1.03c0.23,0.26,0.73,0.57,1.5,0.91
		c0.93,0.42,1.57,0.8,1.91,1.16c0.35,0.36,0.52,0.83,0.52,1.42c0,0.71-0.26,1.29-0.8,1.75c-0.53,0.46-1.26,0.69-2.2,0.69
		C86.02,20.72,85.31,20.52,84.73,20.11z"/>
	<path class="st0" d="M97.85,20.5v-5.34c0-1.06-0.19-1.83-0.57-2.32s-0.98-0.74-1.79-0.74c-0.77,0-1.44,0.3-2.02,0.9
		c-0.58,0.6-0.87,1.45-0.87,2.57v4.93h-0.8V7.31h0.8v5.88h0.03c0.7-1.21,1.72-1.82,3.06-1.82c0.96,0,1.7,0.31,2.2,0.93
		c0.5,0.62,0.76,1.51,0.76,2.67v5.52H97.85z"/>
	<path class="st2" d="M110.61,20.16c-1.03,0.37-2.22,0.56-3.58,0.56c-1.33,0-2.47-0.25-3.44-0.76c-0.96-0.51-1.7-1.23-2.21-2.17
		c-0.51-0.94-0.76-2.02-0.76-3.24c0-1.32,0.28-2.49,0.85-3.52c0.57-1.03,1.37-1.82,2.41-2.38c1.04-0.56,2.23-0.84,3.58-0.84
		c1.08,0,2.12,0.13,3.13,0.39v3.47c-0.35-0.21-0.76-0.37-1.25-0.49s-0.97-0.17-1.46-0.17c-1.02,0-1.83,0.29-2.42,0.88
		c-0.59,0.59-0.88,1.38-0.88,2.38c0,1,0.29,1.78,0.88,2.36c0.59,0.58,1.38,0.87,2.36,0.87c0.91,0,1.83-0.23,2.76-0.7V20.16z"/>
	<path class="st2" d="M124.12,20.5v-6.84c0-0.64,0.02-1.35,0.06-2.12l0.03-0.57h-0.1c-0.19,0.98-0.33,1.66-0.43,2.04l-1.84,7.5
		h-3.53l-1.92-7.41c-0.05-0.19-0.19-0.89-0.41-2.12h-0.1c0.08,1.95,0.12,3.17,0.12,3.65v5.88h-3.3V8.03h5.63l1.71,6.78
		c0.04,0.14,0.09,0.42,0.16,0.85c0.07,0.43,0.11,0.76,0.13,0.99h0.05c0.06-0.53,0.17-1.15,0.3-1.87l1.6-6.74h5.54V20.5H124.12z"/>
	<path class="st2" d="M139,16.73c0,0.83-0.22,1.55-0.67,2.17c-0.44,0.61-1.07,1.07-1.87,1.37c-0.8,0.3-1.76,0.45-2.89,0.45
		c-1.3,0-2.5-0.22-3.58-0.66v-3.42c0.52,0.38,1.1,0.69,1.73,0.93c0.63,0.24,1.22,0.35,1.77,0.35c0.41,0,0.73-0.07,0.96-0.22
		c0.23-0.15,0.34-0.36,0.34-0.65c0-0.2-0.06-0.38-0.17-0.54s-0.28-0.3-0.51-0.43c-0.23-0.13-0.65-0.32-1.27-0.55
		c-2.01-0.77-3.01-2.02-3.01-3.74c0-1.21,0.46-2.17,1.37-2.89c0.92-0.72,2.15-1.08,3.69-1.08c0.43,0,0.83,0.02,1.2,0.05
		c0.37,0.03,0.7,0.08,1,0.13c0.3,0.05,0.72,0.15,1.26,0.3v3.18c-1.05-0.57-2.08-0.86-3.1-0.86c-0.42,0-0.75,0.08-1.01,0.23
		c-0.26,0.16-0.38,0.37-0.38,0.64c0,0.26,0.1,0.48,0.31,0.65c0.21,0.17,0.64,0.39,1.29,0.67c1.29,0.52,2.21,1.09,2.75,1.71
		C138.73,15.14,139,15.87,139,16.73z"/>
</g>
</svg>
